<mxfile host="app.diagrams.net" modified="2021-12-26T17:01:48.729Z" agent="5.0 (Windows NT 10.0; Win64; x64) AppleWebKit/537.36 (KHTML, like Gecko) Chrome/96.0.4664.110 Safari/537.36" etag="16BxoXLV4_dQZ3rUVsb4" version="16.1.0" type="github" pages="2">
  <diagram id="DVGj3xG7cd-MtBqYyzDv" name="Page-1">
    <mxGraphModel dx="1522" dy="945" grid="1" gridSize="10" guides="1" tooltips="1" connect="1" arrows="1" fold="1" page="1" pageScale="1" pageWidth="100" pageHeight="100" math="0" shadow="0">
      <root>
        <mxCell id="0" />
        <mxCell id="1" parent="0" />
        <mxCell id="o0NU1b-Tz7x4g7KN-PMa-1" value="&lt;font style=&quot;font-size: 21px&quot;&gt;1&amp;nbsp; 2&amp;nbsp; 3&amp;nbsp; 4&amp;nbsp; 5&amp;nbsp; 6&amp;nbsp; 7&amp;nbsp; 8&amp;nbsp; 9&lt;/font&gt;" style="rounded=1;whiteSpace=wrap;html=1;" parent="1" vertex="1">
          <mxGeometry x="-80" y="100" width="230" height="60" as="geometry" />
        </mxCell>
        <mxCell id="o0NU1b-Tz7x4g7KN-PMa-2" value="" style="endArrow=classic;html=1;rounded=0;fontSize=21;" parent="1" edge="1">
          <mxGeometry width="50" height="50" relative="1" as="geometry">
            <mxPoint x="34.76" y="200" as="sourcePoint" />
            <mxPoint x="34.76" y="160" as="targetPoint" />
          </mxGeometry>
        </mxCell>
        <mxCell id="o0NU1b-Tz7x4g7KN-PMa-3" value="mid" style="text;html=1;strokeColor=none;fillColor=none;align=center;verticalAlign=middle;whiteSpace=wrap;rounded=0;fontSize=21;" parent="1" vertex="1">
          <mxGeometry x="5" y="200" width="60" height="30" as="geometry" />
        </mxCell>
        <mxCell id="o0NU1b-Tz7x4g7KN-PMa-4" value="" style="endArrow=classic;startArrow=classic;html=1;rounded=0;fontSize=21;" parent="1" edge="1">
          <mxGeometry width="50" height="50" relative="1" as="geometry">
            <mxPoint x="-40" y="230" as="sourcePoint" />
            <mxPoint x="120" y="230" as="targetPoint" />
          </mxGeometry>
        </mxCell>
        <mxCell id="o0NU1b-Tz7x4g7KN-PMa-5" value="left&amp;nbsp; &amp;nbsp; &amp;nbsp; &amp;nbsp; &amp;nbsp; &amp;nbsp;right" style="text;html=1;strokeColor=none;fillColor=none;align=center;verticalAlign=middle;whiteSpace=wrap;rounded=0;fontSize=21;" parent="1" vertex="1">
          <mxGeometry x="-34" y="230" width="148" height="30" as="geometry" />
        </mxCell>
        <mxCell id="o0NU1b-Tz7x4g7KN-PMa-6" value="&lt;font style=&quot;font-size: 21px&quot;&gt;1&amp;nbsp; 2&amp;nbsp; 3&amp;nbsp; 4&amp;nbsp; 5&amp;nbsp; 6&amp;nbsp; 7&amp;nbsp; 8&amp;nbsp; 9&amp;nbsp; 10 11 12 13 14 15 16 17 18 19 20&lt;/font&gt;" style="rounded=1;whiteSpace=wrap;html=1;" parent="1" vertex="1">
          <mxGeometry x="-70" y="-20" width="550" height="60" as="geometry" />
        </mxCell>
        <mxCell id="o0NU1b-Tz7x4g7KN-PMa-7" value="" style="endArrow=none;html=1;rounded=0;fontSize=21;" parent="1" edge="1">
          <mxGeometry width="50" height="50" relative="1" as="geometry">
            <mxPoint x="150" y="140" as="sourcePoint" />
            <mxPoint x="150" y="-70" as="targetPoint" />
          </mxGeometry>
        </mxCell>
        <mxCell id="o0NU1b-Tz7x4g7KN-PMa-8" value="" style="endArrow=none;html=1;rounded=0;fontSize=21;" parent="1" edge="1">
          <mxGeometry width="50" height="50" relative="1" as="geometry">
            <mxPoint x="180" y="140" as="sourcePoint" />
            <mxPoint x="180" y="-70" as="targetPoint" />
          </mxGeometry>
        </mxCell>
        <mxCell id="o0NU1b-Tz7x4g7KN-PMa-9" value="mid" style="text;html=1;strokeColor=none;fillColor=none;align=center;verticalAlign=middle;whiteSpace=wrap;rounded=0;fontSize=21;" parent="1" vertex="1">
          <mxGeometry x="130" y="160" width="60" height="30" as="geometry" />
        </mxCell>
        <mxCell id="o0NU1b-Tz7x4g7KN-PMa-10" value="" style="endArrow=classic;html=1;rounded=0;fontSize=21;entryX=0.427;entryY=1.02;entryDx=0;entryDy=0;entryPerimeter=0;exitX=0.581;exitY=0;exitDx=0;exitDy=0;exitPerimeter=0;" parent="1" source="o0NU1b-Tz7x4g7KN-PMa-9" target="o0NU1b-Tz7x4g7KN-PMa-6" edge="1">
          <mxGeometry width="50" height="50" relative="1" as="geometry">
            <mxPoint x="160" y="140" as="sourcePoint" />
            <mxPoint x="160" y="100" as="targetPoint" />
          </mxGeometry>
        </mxCell>
        <mxCell id="o0NU1b-Tz7x4g7KN-PMa-11" value="" style="endArrow=classic;startArrow=classic;html=1;rounded=0;fontSize=21;" parent="1" edge="1">
          <mxGeometry width="50" height="50" relative="1" as="geometry">
            <mxPoint x="80" y="190" as="sourcePoint" />
            <mxPoint x="240" y="190" as="targetPoint" />
          </mxGeometry>
        </mxCell>
        <mxCell id="o0NU1b-Tz7x4g7KN-PMa-12" value="left&amp;nbsp; &amp;nbsp; &amp;nbsp; &amp;nbsp; &amp;nbsp; &amp;nbsp;right" style="text;html=1;strokeColor=none;fillColor=none;align=center;verticalAlign=middle;whiteSpace=wrap;rounded=0;fontSize=21;" parent="1" vertex="1">
          <mxGeometry x="86" y="190" width="148" height="30" as="geometry" />
        </mxCell>
        <mxCell id="o0NU1b-Tz7x4g7KN-PMa-13" value="" style="endArrow=none;dashed=1;html=1;dashPattern=1 3;strokeWidth=2;rounded=0;fontSize=21;" parent="1" edge="1">
          <mxGeometry width="50" height="50" relative="1" as="geometry">
            <mxPoint x="-70" y="230" as="sourcePoint" />
            <mxPoint x="-20" y="180" as="targetPoint" />
          </mxGeometry>
        </mxCell>
        <mxCell id="o0NU1b-Tz7x4g7KN-PMa-14" value="&lt;font style=&quot;font-size: 21px&quot;&gt;11&amp;nbsp; 12&amp;nbsp; 13&amp;nbsp; 14&amp;nbsp; 15&amp;nbsp; 16&amp;nbsp; 17&amp;nbsp; 18&amp;nbsp; 19 20&lt;/font&gt;" style="rounded=1;whiteSpace=wrap;html=1;" parent="1" vertex="1">
          <mxGeometry x="190" y="100" width="340" height="60" as="geometry" />
        </mxCell>
        <mxCell id="o0NU1b-Tz7x4g7KN-PMa-15" value="" style="endArrow=none;dashed=1;html=1;dashPattern=1 3;strokeWidth=2;rounded=0;fontSize=21;" parent="1" edge="1">
          <mxGeometry width="50" height="50" relative="1" as="geometry">
            <mxPoint x="475" y="230" as="sourcePoint" />
            <mxPoint x="425" y="180" as="targetPoint" />
          </mxGeometry>
        </mxCell>
        <mxCell id="o0NU1b-Tz7x4g7KN-PMa-16" value="" style="endArrow=classic;html=1;rounded=0;fontSize=21;" parent="1" edge="1">
          <mxGeometry width="50" height="50" relative="1" as="geometry">
            <mxPoint x="166" y="-72.38095238095238" as="sourcePoint" />
            <mxPoint x="166" y="-20" as="targetPoint" />
            <Array as="points">
              <mxPoint x="166" y="-50" />
            </Array>
          </mxGeometry>
        </mxCell>
        <mxCell id="o0NU1b-Tz7x4g7KN-PMa-17" value="" style="endArrow=classic;html=1;rounded=0;fontSize=21;entryX=0.374;entryY=0.028;entryDx=0;entryDy=0;entryPerimeter=0;exitX=0.431;exitY=1.071;exitDx=0;exitDy=0;exitPerimeter=0;" parent="1" source="o0NU1b-Tz7x4g7KN-PMa-19" edge="1">
          <mxGeometry width="50" height="50" relative="1" as="geometry">
            <mxPoint x="195" y="-60" as="sourcePoint" />
            <mxPoint x="195.00000000000006" y="-19.999999999999993" as="targetPoint" />
          </mxGeometry>
        </mxCell>
        <mxCell id="o0NU1b-Tz7x4g7KN-PMa-18" value="left" style="text;html=1;strokeColor=none;fillColor=none;align=center;verticalAlign=middle;whiteSpace=wrap;rounded=0;fontSize=21;" parent="1" vertex="1">
          <mxGeometry x="130" y="-100" width="60" height="30" as="geometry" />
        </mxCell>
        <mxCell id="o0NU1b-Tz7x4g7KN-PMa-19" value="right" style="text;html=1;strokeColor=none;fillColor=none;align=center;verticalAlign=middle;whiteSpace=wrap;rounded=0;fontSize=21;" parent="1" vertex="1">
          <mxGeometry x="170" y="-100" width="60" height="30" as="geometry" />
        </mxCell>
        <mxCell id="o0NU1b-Tz7x4g7KN-PMa-20" value="max?" style="text;html=1;strokeColor=none;fillColor=none;align=center;verticalAlign=middle;whiteSpace=wrap;rounded=0;fontSize=21;" parent="1" vertex="1">
          <mxGeometry x="10" y="60" width="60" height="30" as="geometry" />
        </mxCell>
        <mxCell id="o0NU1b-Tz7x4g7KN-PMa-21" value="max?" style="text;html=1;strokeColor=none;fillColor=none;align=center;verticalAlign=middle;whiteSpace=wrap;rounded=0;fontSize=21;" parent="1" vertex="1">
          <mxGeometry x="320" y="60" width="60" height="30" as="geometry" />
        </mxCell>
        <mxCell id="o0NU1b-Tz7x4g7KN-PMa-22" value="max?" style="text;html=1;strokeColor=none;fillColor=none;align=center;verticalAlign=middle;whiteSpace=wrap;rounded=0;fontSize=21;" parent="1" vertex="1">
          <mxGeometry x="140" y="-130" width="60" height="30" as="geometry" />
        </mxCell>
      </root>
    </mxGraphModel>
  </diagram>
  <diagram id="bwdAadu-Szg_k8UyeTxB" name="Page-2">
    <mxGraphModel dx="1485" dy="1221" grid="1" gridSize="10" guides="1" tooltips="1" connect="1" arrows="1" fold="1" page="1" pageScale="1" pageWidth="100" pageHeight="100" math="0" shadow="0">
      <root>
        <mxCell id="tGNgl5vEvo_jyVuy_n-S-0" />
        <mxCell id="tGNgl5vEvo_jyVuy_n-S-1" parent="tGNgl5vEvo_jyVuy_n-S-0" />
        <mxCell id="tGNgl5vEvo_jyVuy_n-S-10" value="mid" style="text;html=1;strokeColor=none;fillColor=none;align=center;verticalAlign=middle;whiteSpace=wrap;rounded=0;fontSize=21;" vertex="1" parent="tGNgl5vEvo_jyVuy_n-S-1">
          <mxGeometry x="79" y="-180" width="60" height="30" as="geometry" />
        </mxCell>
        <mxCell id="tGNgl5vEvo_jyVuy_n-S-11" value="" style="endArrow=classic;html=1;rounded=0;fontSize=21;entryX=0.427;entryY=1.02;entryDx=0;entryDy=0;entryPerimeter=0;" edge="1" parent="tGNgl5vEvo_jyVuy_n-S-1">
          <mxGeometry width="50" height="50" relative="1" as="geometry">
            <mxPoint x="109" y="-180" as="sourcePoint" />
            <mxPoint x="108.85000000000014" y="-198.99999999999994" as="targetPoint" />
          </mxGeometry>
        </mxCell>
        <mxCell id="tGNgl5vEvo_jyVuy_n-S-17" value="" style="endArrow=classic;html=1;rounded=0;fontSize=21;" edge="1" parent="tGNgl5vEvo_jyVuy_n-S-1">
          <mxGeometry width="50" height="50" relative="1" as="geometry">
            <mxPoint x="110" y="-502.3809523809524" as="sourcePoint" />
            <mxPoint x="110" y="-450" as="targetPoint" />
            <Array as="points">
              <mxPoint x="110" y="-480" />
            </Array>
          </mxGeometry>
        </mxCell>
        <mxCell id="tGNgl5vEvo_jyVuy_n-S-18" value="" style="endArrow=classic;html=1;rounded=0;fontSize=21;exitX=0.431;exitY=1.071;exitDx=0;exitDy=0;exitPerimeter=0;entryX=0.5;entryY=0;entryDx=0;entryDy=0;" edge="1" parent="tGNgl5vEvo_jyVuy_n-S-1" source="tGNgl5vEvo_jyVuy_n-S-20" target="tGNgl5vEvo_jyVuy_n-S-30">
          <mxGeometry width="50" height="50" relative="1" as="geometry">
            <mxPoint x="139" y="-490" as="sourcePoint" />
            <mxPoint x="154" y="-450" as="targetPoint" />
          </mxGeometry>
        </mxCell>
        <mxCell id="tGNgl5vEvo_jyVuy_n-S-19" value="left" style="text;html=1;strokeColor=none;fillColor=none;align=center;verticalAlign=middle;whiteSpace=wrap;rounded=0;fontSize=21;" vertex="1" parent="tGNgl5vEvo_jyVuy_n-S-1">
          <mxGeometry x="79" y="-530" width="60" height="30" as="geometry" />
        </mxCell>
        <mxCell id="tGNgl5vEvo_jyVuy_n-S-20" value="right" style="text;html=1;strokeColor=none;fillColor=none;align=center;verticalAlign=middle;whiteSpace=wrap;rounded=0;fontSize=21;" vertex="1" parent="tGNgl5vEvo_jyVuy_n-S-1">
          <mxGeometry x="134" y="-520" width="60" height="30" as="geometry" />
        </mxCell>
        <mxCell id="tGNgl5vEvo_jyVuy_n-S-23" value="max?" style="text;html=1;strokeColor=none;fillColor=none;align=center;verticalAlign=middle;whiteSpace=wrap;rounded=0;fontSize=21;" vertex="1" parent="tGNgl5vEvo_jyVuy_n-S-1">
          <mxGeometry x="-40" y="-440" width="60" height="30" as="geometry" />
        </mxCell>
        <mxCell id="tGNgl5vEvo_jyVuy_n-S-24" value="&lt;font style=&quot;font-size: 21px&quot;&gt;2&lt;/font&gt;" style="rounded=0;whiteSpace=wrap;html=1;" vertex="1" parent="tGNgl5vEvo_jyVuy_n-S-1">
          <mxGeometry x="-66" y="-300" width="50" height="100" as="geometry" />
        </mxCell>
        <mxCell id="tGNgl5vEvo_jyVuy_n-S-25" value="&lt;font style=&quot;font-size: 21px&quot;&gt;1&lt;/font&gt;" style="rounded=0;whiteSpace=wrap;html=1;" vertex="1" parent="tGNgl5vEvo_jyVuy_n-S-1">
          <mxGeometry x="-16" y="-250" width="50" height="50" as="geometry" />
        </mxCell>
        <mxCell id="tGNgl5vEvo_jyVuy_n-S-26" value="&lt;font style=&quot;font-size: 21px&quot;&gt;4&lt;/font&gt;" style="rounded=0;whiteSpace=wrap;html=1;" vertex="1" parent="tGNgl5vEvo_jyVuy_n-S-1">
          <mxGeometry x="34" y="-400" width="50" height="200" as="geometry" />
        </mxCell>
        <mxCell id="tGNgl5vEvo_jyVuy_n-S-27" value="&lt;font style=&quot;font-size: 21px&quot;&gt;5&lt;/font&gt;" style="rounded=0;whiteSpace=wrap;html=1;" vertex="1" parent="tGNgl5vEvo_jyVuy_n-S-1">
          <mxGeometry x="84" y="-450" width="50" height="250" as="geometry" />
        </mxCell>
        <mxCell id="tGNgl5vEvo_jyVuy_n-S-28" value="&lt;font style=&quot;font-size: 21px&quot;&gt;3&lt;/font&gt;" style="rounded=0;whiteSpace=wrap;html=1;" vertex="1" parent="tGNgl5vEvo_jyVuy_n-S-1">
          <mxGeometry x="234" y="-350" width="50" height="150" as="geometry" />
        </mxCell>
        <mxCell id="tGNgl5vEvo_jyVuy_n-S-29" value="&lt;font style=&quot;font-size: 21px&quot;&gt;3&lt;/font&gt;" style="rounded=0;whiteSpace=wrap;html=1;" vertex="1" parent="tGNgl5vEvo_jyVuy_n-S-1">
          <mxGeometry x="184" y="-350" width="50" height="150" as="geometry" />
        </mxCell>
        <mxCell id="tGNgl5vEvo_jyVuy_n-S-30" value="&lt;font style=&quot;font-size: 21px&quot;&gt;1&lt;/font&gt;" style="rounded=0;whiteSpace=wrap;html=1;" vertex="1" parent="tGNgl5vEvo_jyVuy_n-S-1">
          <mxGeometry x="134" y="-250" width="50" height="50" as="geometry" />
        </mxCell>
        <mxCell id="tGNgl5vEvo_jyVuy_n-S-32" value="&lt;font style=&quot;font-size: 21px&quot;&gt;2&lt;/font&gt;" style="rounded=0;whiteSpace=wrap;html=1;" vertex="1" parent="tGNgl5vEvo_jyVuy_n-S-1">
          <mxGeometry x="-150" y="20" width="50" height="100" as="geometry" />
        </mxCell>
        <mxCell id="tGNgl5vEvo_jyVuy_n-S-33" value="&lt;font style=&quot;font-size: 21px&quot;&gt;1&lt;/font&gt;" style="rounded=0;whiteSpace=wrap;html=1;" vertex="1" parent="tGNgl5vEvo_jyVuy_n-S-1">
          <mxGeometry x="-100" y="70" width="50" height="50" as="geometry" />
        </mxCell>
        <mxCell id="tGNgl5vEvo_jyVuy_n-S-34" value="&lt;font style=&quot;font-size: 21px&quot;&gt;4&lt;/font&gt;" style="rounded=0;whiteSpace=wrap;html=1;" vertex="1" parent="tGNgl5vEvo_jyVuy_n-S-1">
          <mxGeometry x="-50" y="-80" width="50" height="200" as="geometry" />
        </mxCell>
        <mxCell id="tGNgl5vEvo_jyVuy_n-S-35" value="&lt;font style=&quot;font-size: 21px&quot;&gt;5&lt;/font&gt;" style="rounded=0;whiteSpace=wrap;html=1;" vertex="1" parent="tGNgl5vEvo_jyVuy_n-S-1">
          <mxGeometry y="-130" width="50" height="250" as="geometry" />
        </mxCell>
        <mxCell id="tGNgl5vEvo_jyVuy_n-S-36" value="&lt;font style=&quot;font-size: 21px&quot;&gt;3&lt;/font&gt;" style="rounded=0;whiteSpace=wrap;html=1;" vertex="1" parent="tGNgl5vEvo_jyVuy_n-S-1">
          <mxGeometry x="310" y="-30" width="50" height="150" as="geometry" />
        </mxCell>
        <mxCell id="tGNgl5vEvo_jyVuy_n-S-37" value="&lt;font style=&quot;font-size: 21px&quot;&gt;3&lt;/font&gt;" style="rounded=0;whiteSpace=wrap;html=1;" vertex="1" parent="tGNgl5vEvo_jyVuy_n-S-1">
          <mxGeometry x="260" y="-30" width="50" height="150" as="geometry" />
        </mxCell>
        <mxCell id="tGNgl5vEvo_jyVuy_n-S-38" value="&lt;font style=&quot;font-size: 21px&quot;&gt;1&lt;/font&gt;" style="rounded=0;whiteSpace=wrap;html=1;" vertex="1" parent="tGNgl5vEvo_jyVuy_n-S-1">
          <mxGeometry x="210" y="70" width="50" height="50" as="geometry" />
        </mxCell>
        <mxCell id="tGNgl5vEvo_jyVuy_n-S-39" value="mid" style="text;html=1;strokeColor=none;fillColor=none;align=center;verticalAlign=middle;whiteSpace=wrap;rounded=0;fontSize=21;" vertex="1" parent="tGNgl5vEvo_jyVuy_n-S-1">
          <mxGeometry x="-105" y="139" width="60" height="30" as="geometry" />
        </mxCell>
        <mxCell id="tGNgl5vEvo_jyVuy_n-S-40" value="" style="endArrow=classic;html=1;rounded=0;fontSize=21;entryX=0.427;entryY=1.02;entryDx=0;entryDy=0;entryPerimeter=0;" edge="1" parent="tGNgl5vEvo_jyVuy_n-S-1">
          <mxGeometry width="50" height="50" relative="1" as="geometry">
            <mxPoint x="-75" y="139" as="sourcePoint" />
            <mxPoint x="-75.14999999999986" y="120" as="targetPoint" />
          </mxGeometry>
        </mxCell>
        <mxCell id="tGNgl5vEvo_jyVuy_n-S-41" value="mid" style="text;html=1;strokeColor=none;fillColor=none;align=center;verticalAlign=middle;whiteSpace=wrap;rounded=0;fontSize=21;" vertex="1" parent="tGNgl5vEvo_jyVuy_n-S-1">
          <mxGeometry x="260" y="139" width="60" height="30" as="geometry" />
        </mxCell>
        <mxCell id="tGNgl5vEvo_jyVuy_n-S-42" value="" style="endArrow=classic;html=1;rounded=0;fontSize=21;entryX=0.427;entryY=1.02;entryDx=0;entryDy=0;entryPerimeter=0;" edge="1" parent="tGNgl5vEvo_jyVuy_n-S-1">
          <mxGeometry width="50" height="50" relative="1" as="geometry">
            <mxPoint x="290" y="139" as="sourcePoint" />
            <mxPoint x="289.85000000000014" y="120" as="targetPoint" />
          </mxGeometry>
        </mxCell>
        <mxCell id="tGNgl5vEvo_jyVuy_n-S-43" value="max?" style="text;html=1;strokeColor=none;fillColor=none;align=center;verticalAlign=middle;whiteSpace=wrap;rounded=0;fontSize=21;" vertex="1" parent="tGNgl5vEvo_jyVuy_n-S-1">
          <mxGeometry x="-130" y="-60" width="60" height="30" as="geometry" />
        </mxCell>
        <mxCell id="tGNgl5vEvo_jyVuy_n-S-44" value="max?" style="text;html=1;strokeColor=none;fillColor=none;align=center;verticalAlign=middle;whiteSpace=wrap;rounded=0;fontSize=21;" vertex="1" parent="tGNgl5vEvo_jyVuy_n-S-1">
          <mxGeometry x="194" y="-70" width="60" height="30" as="geometry" />
        </mxCell>
        <mxCell id="tGNgl5vEvo_jyVuy_n-S-45" value="&lt;font style=&quot;font-size: 21px&quot;&gt;2&lt;/font&gt;" style="rounded=0;whiteSpace=wrap;html=1;" vertex="1" parent="tGNgl5vEvo_jyVuy_n-S-1">
          <mxGeometry x="-180" y="340" width="50" height="100" as="geometry" />
        </mxCell>
        <mxCell id="tGNgl5vEvo_jyVuy_n-S-46" value="&lt;font style=&quot;font-size: 21px&quot;&gt;1&lt;/font&gt;" style="rounded=0;whiteSpace=wrap;html=1;" vertex="1" parent="tGNgl5vEvo_jyVuy_n-S-1">
          <mxGeometry x="-130" y="390" width="50" height="50" as="geometry" />
        </mxCell>
        <mxCell id="tGNgl5vEvo_jyVuy_n-S-47" value="&lt;font style=&quot;font-size: 21px&quot;&gt;4&lt;/font&gt;" style="rounded=0;whiteSpace=wrap;html=1;" vertex="1" parent="tGNgl5vEvo_jyVuy_n-S-1">
          <mxGeometry x="-20" y="240" width="50" height="200" as="geometry" />
        </mxCell>
        <mxCell id="tGNgl5vEvo_jyVuy_n-S-48" value="&lt;font style=&quot;font-size: 21px&quot;&gt;5&lt;/font&gt;" style="rounded=0;whiteSpace=wrap;html=1;" vertex="1" parent="tGNgl5vEvo_jyVuy_n-S-1">
          <mxGeometry x="30" y="190" width="50" height="250" as="geometry" />
        </mxCell>
        <mxCell id="tGNgl5vEvo_jyVuy_n-S-49" value="&lt;font style=&quot;font-size: 21px&quot;&gt;3&lt;/font&gt;" style="rounded=0;whiteSpace=wrap;html=1;" vertex="1" parent="tGNgl5vEvo_jyVuy_n-S-1">
          <mxGeometry x="240" y="285" width="50" height="150" as="geometry" />
        </mxCell>
        <mxCell id="tGNgl5vEvo_jyVuy_n-S-50" value="&lt;font style=&quot;font-size: 21px&quot;&gt;1&lt;/font&gt;" style="rounded=0;whiteSpace=wrap;html=1;" vertex="1" parent="tGNgl5vEvo_jyVuy_n-S-1">
          <mxGeometry x="190" y="385" width="50" height="50" as="geometry" />
        </mxCell>
        <mxCell id="tGNgl5vEvo_jyVuy_n-S-51" value="&lt;font style=&quot;font-size: 21px&quot;&gt;3&lt;/font&gt;" style="rounded=0;whiteSpace=wrap;html=1;" vertex="1" parent="tGNgl5vEvo_jyVuy_n-S-1">
          <mxGeometry x="360" y="285" width="50" height="150" as="geometry" />
        </mxCell>
        <mxCell id="tGNgl5vEvo_jyVuy_n-S-52" value="return" style="text;html=1;strokeColor=none;fillColor=none;align=center;verticalAlign=middle;whiteSpace=wrap;rounded=0;fontSize=21;" vertex="1" parent="tGNgl5vEvo_jyVuy_n-S-1">
          <mxGeometry x="355" y="245" width="60" height="30" as="geometry" />
        </mxCell>
        <mxCell id="tGNgl5vEvo_jyVuy_n-S-53" value="max?" style="text;html=1;strokeColor=none;fillColor=none;align=center;verticalAlign=middle;whiteSpace=wrap;rounded=0;fontSize=21;" vertex="1" parent="tGNgl5vEvo_jyVuy_n-S-1">
          <mxGeometry x="204" y="245" width="60" height="30" as="geometry" />
        </mxCell>
        <mxCell id="tGNgl5vEvo_jyVuy_n-S-54" value="max?" style="text;html=1;strokeColor=none;fillColor=none;align=center;verticalAlign=middle;whiteSpace=wrap;rounded=0;fontSize=21;" vertex="1" parent="tGNgl5vEvo_jyVuy_n-S-1">
          <mxGeometry x="-80" y="265" width="60" height="30" as="geometry" />
        </mxCell>
        <mxCell id="tGNgl5vEvo_jyVuy_n-S-55" value="max?" style="text;html=1;strokeColor=none;fillColor=none;align=center;verticalAlign=middle;whiteSpace=wrap;rounded=0;fontSize=21;" vertex="1" parent="tGNgl5vEvo_jyVuy_n-S-1">
          <mxGeometry x="-230" y="285" width="60" height="30" as="geometry" />
        </mxCell>
        <mxCell id="tGNgl5vEvo_jyVuy_n-S-56" value="mid" style="text;html=1;strokeColor=none;fillColor=none;align=center;verticalAlign=middle;whiteSpace=wrap;rounded=0;fontSize=21;" vertex="1" parent="tGNgl5vEvo_jyVuy_n-S-1">
          <mxGeometry x="-185" y="464" width="60" height="30" as="geometry" />
        </mxCell>
        <mxCell id="tGNgl5vEvo_jyVuy_n-S-57" value="" style="endArrow=classic;html=1;rounded=0;fontSize=21;entryX=0.427;entryY=1.02;entryDx=0;entryDy=0;entryPerimeter=0;" edge="1" parent="tGNgl5vEvo_jyVuy_n-S-1">
          <mxGeometry width="50" height="50" relative="1" as="geometry">
            <mxPoint x="-155" y="464" as="sourcePoint" />
            <mxPoint x="-155.14999999999986" y="445" as="targetPoint" />
          </mxGeometry>
        </mxCell>
        <mxCell id="tGNgl5vEvo_jyVuy_n-S-58" value="mid" style="text;html=1;strokeColor=none;fillColor=none;align=center;verticalAlign=middle;whiteSpace=wrap;rounded=0;fontSize=21;" vertex="1" parent="tGNgl5vEvo_jyVuy_n-S-1">
          <mxGeometry x="-25" y="459" width="60" height="30" as="geometry" />
        </mxCell>
        <mxCell id="tGNgl5vEvo_jyVuy_n-S-59" value="" style="endArrow=classic;html=1;rounded=0;fontSize=21;entryX=0.427;entryY=1.02;entryDx=0;entryDy=0;entryPerimeter=0;" edge="1" parent="tGNgl5vEvo_jyVuy_n-S-1">
          <mxGeometry width="50" height="50" relative="1" as="geometry">
            <mxPoint x="5" y="459" as="sourcePoint" />
            <mxPoint x="4.850000000000136" y="440" as="targetPoint" />
          </mxGeometry>
        </mxCell>
        <mxCell id="tGNgl5vEvo_jyVuy_n-S-60" value="mid" style="text;html=1;strokeColor=none;fillColor=none;align=center;verticalAlign=middle;whiteSpace=wrap;rounded=0;fontSize=21;" vertex="1" parent="tGNgl5vEvo_jyVuy_n-S-1">
          <mxGeometry x="190" y="454" width="60" height="30" as="geometry" />
        </mxCell>
        <mxCell id="tGNgl5vEvo_jyVuy_n-S-61" value="" style="endArrow=classic;html=1;rounded=0;fontSize=21;entryX=0.427;entryY=1.02;entryDx=0;entryDy=0;entryPerimeter=0;" edge="1" parent="tGNgl5vEvo_jyVuy_n-S-1">
          <mxGeometry width="50" height="50" relative="1" as="geometry">
            <mxPoint x="220" y="454" as="sourcePoint" />
            <mxPoint x="219.85000000000014" y="435" as="targetPoint" />
          </mxGeometry>
        </mxCell>
        <mxCell id="tGNgl5vEvo_jyVuy_n-S-64" value="&lt;font style=&quot;font-size: 21px&quot;&gt;2&lt;/font&gt;" style="rounded=0;whiteSpace=wrap;html=1;" vertex="1" parent="tGNgl5vEvo_jyVuy_n-S-1">
          <mxGeometry x="-195" y="690" width="50" height="100" as="geometry" />
        </mxCell>
        <mxCell id="tGNgl5vEvo_jyVuy_n-S-65" value="&lt;font style=&quot;font-size: 21px&quot;&gt;1&lt;/font&gt;" style="rounded=0;whiteSpace=wrap;html=1;" vertex="1" parent="tGNgl5vEvo_jyVuy_n-S-1">
          <mxGeometry x="-75" y="740" width="50" height="50" as="geometry" />
        </mxCell>
        <mxCell id="tGNgl5vEvo_jyVuy_n-S-66" value="&lt;font style=&quot;font-size: 21px&quot;&gt;4&lt;/font&gt;" style="rounded=0;whiteSpace=wrap;html=1;" vertex="1" parent="tGNgl5vEvo_jyVuy_n-S-1">
          <mxGeometry x="45" y="590" width="50" height="200" as="geometry" />
        </mxCell>
        <mxCell id="tGNgl5vEvo_jyVuy_n-S-67" value="&lt;font style=&quot;font-size: 21px&quot;&gt;5&lt;/font&gt;" style="rounded=0;whiteSpace=wrap;html=1;" vertex="1" parent="tGNgl5vEvo_jyVuy_n-S-1">
          <mxGeometry x="165" y="540" width="50" height="250" as="geometry" />
        </mxCell>
        <mxCell id="tGNgl5vEvo_jyVuy_n-S-68" value="&lt;font style=&quot;font-size: 21px&quot;&gt;1&lt;/font&gt;" style="rounded=0;whiteSpace=wrap;html=1;" vertex="1" parent="tGNgl5vEvo_jyVuy_n-S-1">
          <mxGeometry x="290" y="740" width="50" height="50" as="geometry" />
        </mxCell>
        <mxCell id="tGNgl5vEvo_jyVuy_n-S-69" value="&lt;font style=&quot;font-size: 21px&quot;&gt;3&lt;/font&gt;" style="rounded=0;whiteSpace=wrap;html=1;" vertex="1" parent="tGNgl5vEvo_jyVuy_n-S-1">
          <mxGeometry x="385" y="640" width="50" height="150" as="geometry" />
        </mxCell>
        <mxCell id="tGNgl5vEvo_jyVuy_n-S-71" value="return" style="text;html=1;strokeColor=none;fillColor=none;align=center;verticalAlign=middle;whiteSpace=wrap;rounded=0;fontSize=21;" vertex="1" parent="tGNgl5vEvo_jyVuy_n-S-1">
          <mxGeometry x="380" y="600" width="60" height="30" as="geometry" />
        </mxCell>
        <mxCell id="tGNgl5vEvo_jyVuy_n-S-72" value="return" style="text;html=1;strokeColor=none;fillColor=none;align=center;verticalAlign=middle;whiteSpace=wrap;rounded=0;fontSize=21;" vertex="1" parent="tGNgl5vEvo_jyVuy_n-S-1">
          <mxGeometry x="285" y="710" width="60" height="30" as="geometry" />
        </mxCell>
        <mxCell id="tGNgl5vEvo_jyVuy_n-S-73" value="return" style="text;html=1;strokeColor=none;fillColor=none;align=center;verticalAlign=middle;whiteSpace=wrap;rounded=0;fontSize=21;" vertex="1" parent="tGNgl5vEvo_jyVuy_n-S-1">
          <mxGeometry x="160" y="510" width="60" height="30" as="geometry" />
        </mxCell>
        <mxCell id="tGNgl5vEvo_jyVuy_n-S-74" value="return" style="text;html=1;strokeColor=none;fillColor=none;align=center;verticalAlign=middle;whiteSpace=wrap;rounded=0;fontSize=21;" vertex="1" parent="tGNgl5vEvo_jyVuy_n-S-1">
          <mxGeometry x="39" y="560" width="60" height="30" as="geometry" />
        </mxCell>
        <mxCell id="tGNgl5vEvo_jyVuy_n-S-75" value="return" style="text;html=1;strokeColor=none;fillColor=none;align=center;verticalAlign=middle;whiteSpace=wrap;rounded=0;fontSize=21;" vertex="1" parent="tGNgl5vEvo_jyVuy_n-S-1">
          <mxGeometry x="-80" y="710" width="60" height="30" as="geometry" />
        </mxCell>
        <mxCell id="tGNgl5vEvo_jyVuy_n-S-76" value="return" style="text;html=1;strokeColor=none;fillColor=none;align=center;verticalAlign=middle;whiteSpace=wrap;rounded=0;fontSize=21;" vertex="1" parent="tGNgl5vEvo_jyVuy_n-S-1">
          <mxGeometry x="-200" y="660" width="60" height="30" as="geometry" />
        </mxCell>
        <mxCell id="tGNgl5vEvo_jyVuy_n-S-77" value="" style="endArrow=classic;html=1;rounded=0;fontSize=21;strokeWidth=3;" edge="1" parent="tGNgl5vEvo_jyVuy_n-S-1">
          <mxGeometry width="50" height="50" relative="1" as="geometry">
            <mxPoint x="170" y="-160" as="sourcePoint" />
            <mxPoint x="210" y="-110" as="targetPoint" />
          </mxGeometry>
        </mxCell>
        <mxCell id="tGNgl5vEvo_jyVuy_n-S-78" value="" style="endArrow=classic;html=1;rounded=0;fontSize=21;strokeWidth=3;" edge="1" parent="tGNgl5vEvo_jyVuy_n-S-1">
          <mxGeometry width="50" height="50" relative="1" as="geometry">
            <mxPoint x="40" y="-170" as="sourcePoint" />
            <mxPoint x="30" y="-140" as="targetPoint" />
          </mxGeometry>
        </mxCell>
        <mxCell id="tGNgl5vEvo_jyVuy_n-S-79" value="" style="endArrow=classic;html=1;rounded=0;fontSize=21;strokeWidth=3;" edge="1" parent="tGNgl5vEvo_jyVuy_n-S-1">
          <mxGeometry width="50" height="50" relative="1" as="geometry">
            <mxPoint x="340" y="160" as="sourcePoint" />
            <mxPoint x="360" y="220" as="targetPoint" />
          </mxGeometry>
        </mxCell>
        <mxCell id="tGNgl5vEvo_jyVuy_n-S-80" value="" style="endArrow=classic;html=1;rounded=0;fontSize=21;strokeWidth=3;" edge="1" parent="tGNgl5vEvo_jyVuy_n-S-1">
          <mxGeometry width="50" height="50" relative="1" as="geometry">
            <mxPoint x="280" y="190" as="sourcePoint" />
            <mxPoint x="275" y="230" as="targetPoint" />
          </mxGeometry>
        </mxCell>
        <mxCell id="tGNgl5vEvo_jyVuy_n-S-81" value="" style="endArrow=classic;html=1;rounded=0;fontSize=21;strokeWidth=3;" edge="1" parent="tGNgl5vEvo_jyVuy_n-S-1">
          <mxGeometry width="50" height="50" relative="1" as="geometry">
            <mxPoint x="-16" y="150" as="sourcePoint" />
            <mxPoint x="14" y="200" as="targetPoint" />
          </mxGeometry>
        </mxCell>
        <mxCell id="tGNgl5vEvo_jyVuy_n-S-82" value="" style="endArrow=classic;html=1;rounded=0;fontSize=21;strokeWidth=3;" edge="1" parent="tGNgl5vEvo_jyVuy_n-S-1">
          <mxGeometry width="50" height="50" relative="1" as="geometry">
            <mxPoint x="-92" y="190" as="sourcePoint" />
            <mxPoint x="-117.5" y="265" as="targetPoint" />
          </mxGeometry>
        </mxCell>
        <mxCell id="tGNgl5vEvo_jyVuy_n-S-83" value="" style="endArrow=classic;html=1;rounded=0;fontSize=21;strokeWidth=3;" edge="1" parent="tGNgl5vEvo_jyVuy_n-S-1">
          <mxGeometry width="50" height="50" relative="1" as="geometry">
            <mxPoint x="300" y="470" as="sourcePoint" />
            <mxPoint x="360" y="570" as="targetPoint" />
          </mxGeometry>
        </mxCell>
        <mxCell id="tGNgl5vEvo_jyVuy_n-S-84" value="" style="endArrow=classic;html=1;rounded=0;fontSize=21;strokeWidth=3;" edge="1" parent="tGNgl5vEvo_jyVuy_n-S-1">
          <mxGeometry width="50" height="50" relative="1" as="geometry">
            <mxPoint x="280" y="484" as="sourcePoint" />
            <mxPoint x="300" y="594" as="targetPoint" />
          </mxGeometry>
        </mxCell>
        <mxCell id="tGNgl5vEvo_jyVuy_n-S-85" value="" style="endArrow=classic;html=1;rounded=0;fontSize=21;strokeWidth=3;" edge="1" parent="tGNgl5vEvo_jyVuy_n-S-1">
          <mxGeometry width="50" height="50" relative="1" as="geometry">
            <mxPoint x="50" y="480" as="sourcePoint" />
            <mxPoint x="70" y="545" as="targetPoint" />
          </mxGeometry>
        </mxCell>
        <mxCell id="tGNgl5vEvo_jyVuy_n-S-86" value="" style="endArrow=classic;html=1;rounded=0;fontSize=21;strokeWidth=3;" edge="1" parent="tGNgl5vEvo_jyVuy_n-S-1">
          <mxGeometry width="50" height="50" relative="1" as="geometry">
            <mxPoint x="70" y="480" as="sourcePoint" />
            <mxPoint x="140" y="530" as="targetPoint" />
          </mxGeometry>
        </mxCell>
        <mxCell id="tGNgl5vEvo_jyVuy_n-S-87" value="" style="endArrow=classic;html=1;rounded=0;fontSize=21;strokeWidth=3;" edge="1" parent="tGNgl5vEvo_jyVuy_n-S-1">
          <mxGeometry width="50" height="50" relative="1" as="geometry">
            <mxPoint x="-90" y="492.5" as="sourcePoint" />
            <mxPoint x="-70" y="600" as="targetPoint" />
          </mxGeometry>
        </mxCell>
        <mxCell id="tGNgl5vEvo_jyVuy_n-S-88" value="" style="endArrow=classic;html=1;rounded=0;fontSize=21;strokeWidth=3;" edge="1" parent="tGNgl5vEvo_jyVuy_n-S-1">
          <mxGeometry width="50" height="50" relative="1" as="geometry">
            <mxPoint x="-130" y="510" as="sourcePoint" />
            <mxPoint x="-150" y="620" as="targetPoint" />
          </mxGeometry>
        </mxCell>
      </root>
    </mxGraphModel>
  </diagram>
</mxfile>
